<svg xmlns="http://www.w3.org/2000/svg" viewBox="0 0 79 88.5"><defs><style>.cls-1{fill:#fff;stroke:#fff;stroke-miterlimit:10;}.cls-2{fill:#ffffa7;}.cls-3{fill:#ffb345;}.cls-4{font-size:10.75px;font-family:lilyshow;}</style></defs><g id="图层_2" data-name="图层 2"><g id="图层_1-2" data-name="图层 1"><path class="cls-1" d="M70.59,88s8.77-12.69,7.84-32.36S61.57,13.81,39.07,8.12.5,12.32.5,12.32V88Z"/><polygon class="cls-2" points="10.95 15.32 4.34 12.08 10.71 8.59 11.49 1.11 16.67 6.42 23.75 5 20.61 11.79 24.2 18.43 17.06 17.28 12.24 22.78 10.95 15.32"/><path class="cls-3" d="M11.87,2.22l4.26,4.35.38.39L17,6.85l5.84-1.17-2.61,5.67-.21.45.23.44,3,5.54-5.87-1-.54-.09-.37.42-3.95,4.5-1.07-6.17-.09-.5-.45-.23L5.43,12.05l5.29-2.9.46-.25.06-.52.63-6.16M11.1,0l-.86,8.28-7,3.82,7.24,3.56,1.42,8.23,5.33-6.07,7.87,1.26-3.95-7.31,3.44-7.45L16.84,5.87,11.1,0Z"/><text class="cls-4" transform="matrix(1.07, -0.09, 0.08, 1, 3.26, 42.55)">Chat With AI！</text></g></g></svg>